<?xml version="1.0" encoding="utf-8"?>
<!-- Generator: Adobe Illustrator 23.0.0, SVG Export Plug-In . SVG Version: 6.00 Build 0)  -->
<svg version="1.1" xmlns="http://www.w3.org/2000/svg" xmlns:xlink="http://www.w3.org/1999/xlink" x="0px" y="0px"
	 viewBox="0 0 460.5 153.5" style="enable-background:new 0 0 460.5 153.5;" xml:space="preserve">
<style type="text/css">
	.st0{fill:#070707;stroke:#FFFFFF;stroke-miterlimit:10;}
	.st1{fill:#374093;}
	.st2{fill:#55B3C1;}
	.st3{opacity:0.96;}
	.st4{fill:#070707;}
</style>
<g id="Ebene_2">
</g>
<g id="Ebene_1">
	<g>
		<path class="st0" d="M391,59c-0.1,4.2-0.3,8.5-0.4,12.7c-0.2,5.3-0.4,10.6-0.6,15.9c0,1.1-0.7,1.9-1.2,2.7
			c-6.6,10.7-13.3,21.3-20,32c-0.2,0.4-0.4,0.8-0.7,1.2c-1.3,2-1.8,2.1-4.3,1.8c-4.1-0.5-8.3-0.7-12.4-1c-1.8-0.1-3.6-0.2-5.3-0.4
			c-5.5-7.5-11-15-16.5-22.5c-2.6-3.6-5.2-7.3-7.8-10.9c-0.4-0.6-0.6-1.1-0.6-1.8c-1-17-1.9-33.9-2.9-50.9c-0.1-1.4-0.2-2.8-0.3-4.1
			c0.4-0.4,0.7-0.8,1-1.1c8.7-0.4,17.3-0.4,26.1,0c0.7,0.3,0.8,1.1,0.6,1.7c-1.1,4.4-1,8.8-1.3,13.2c-1,12-1.9,24-2.8,35.9
			c-0.1,1.4,0.9,2.4,1.5,3.4c2.3,4.3,4.8,8.6,7.3,13.1c4.4,0,8.8,0,13.3,0c1.4-3.4,2-7.3,3.6-10.7c2.2-4.8,1.5-9.6,0.9-14.5
			c-1.4-11.5-2.8-23-4.1-34.6c-0.3-2.2-0.5-4.4-0.8-6.6c0.8-1.1,1.9-1.1,2.9-1.1c6-0.1,12-0.2,18-0.3c2.4,0,4.8-0.7,7.3,0.2
			c0.5,7.8-0.7,15.7-0.5,23.6c0.9,0,1.5-0.4,2.1-1c4.3-4.3,8.7-8.5,13.1-12.7c1.3-1.3,2.7-2.5,4-3.7c1.6-1.4,3.7-1.3,5.7-1.1
			c3.9,0.3,7.9,0.4,11.8,0.5c1.1,0,2.2,0.1,3.2,0.7c2.7,3.4,5.5,6.7,8.2,10c1.5,1.8,3,3.6,4.4,5.4c0.8,1.1,0.4,2.8-0.8,3.4
			c-3.5,1.9-6.9,3.7-10.4,5.5c-2.2,1.1-3.8,0.7-5.4-1c-2.3-2.5-4.6-4.9-7-7.4c-1.7,1.5-3.4,3-5.2,4.6c14.4,10.9,28.8,21.8,43,32.5
			c0.7,1.7-0.3,2.6-1.1,3.7c-2.7,3.8-5.2,7.8-8,11.6c-1.3,1.8-2.1,3.8-4,5.1c-0.4,0.3-0.8,0.6-1.3,0.8c-7.4,3.6-14.8,7.2-22.2,10.8
			c-1.6,0.8-3.2,0.9-5,0.4c-11.4-3.5-22.8-6.9-34.3-10.4c-1-0.3-2-0.7-3-1c-0.6-0.8-0.4-1.6-0.4-2c5.6-5.7,10.7-11.4,15.9-17
			c0.6,0,1.2,0,1.7,0c5.9,5.2,11.8,10.3,17.8,15.6c3.6-4.7,7.1-9.2,10.6-13.8c-1.5-2.6-3.9-4.4-5.8-6.6c-3.3-3.8-6.8-7.3-10.2-11
			c-4.1-4.4-8.2-8.7-12.1-13.2c-1.8-2-3.9-3.7-5.3-6C391.2,58.8,391.1,58.9,391,59z"/>
		<path class="st0" d="M164.7,127.2c-7.2,0.5-13.8,0.4-20.5,0c-0.7-0.5-0.6-1.3-0.6-2.1c-0.2-10.1-0.1-20.2-0.6-30.2
			c0-0.3,0-0.7,0-0.8c-2,1.9-4.3,3.7-6.3,5.8c-2.4,2.5-4.8,4.9-7.2,7.3c-1,1-2.8,0.7-3.9-0.3c-3.7-3.6-7.3-7.1-11-10.7
			c-0.7-0.7-1.5-1.3-2.5-2c-0.2,11.4-0.1,22.7-0.6,33.9c-7.5,0.7-14.6,0.3-21.8-0.2c-0.2-30.9-0.4-61.8-0.7-92.8
			c0.3-0.6,0.9-1.1,1-1.8c0.8-0.3,1.4-0.2,2.3-0.1C104.2,47.8,116,62.5,128,77.4c2-2.6,3.9-5.2,5.9-7.8c5.9-7.8,11.7-15.7,17.6-23.5
			c3.2-4.3,6.4-8.5,9.5-12.8c1-1.3,1.6-1.5,3.5-0.7C164.2,64,165.5,95.5,164.7,127.2z"/>
		<path class="st0" d="M286.1,62.7c-5.8,2.4-11.5,4.7-17.5,7.1c-0.9,8.9-1.1,18-1.8,27.1c7.1,4.6,14.2,9.2,21.4,13.8
			c5-3.4,9.9-6.8,15.2-10.4c-2.6-0.3-4.8-0.8-7-0.6c-3.3,0.2-5.2-1.7-7.1-3.9c-1.3-1.6-2.6-3.3-4.1-4.7c-1-1-1.6-2.1-1-4
			c11.1,0,22.3,0.6,33.6,0.8c0.7,3.5,0.8,7.1,1.2,10.6c0.3,2.5,0.4,5,0.9,7.4c0.3,1.4-0.2,2.5-1.6,3.3c-6.3,3.2-12.6,6.6-18.8,9.9
			c-3.3,1.7-6.6,3.5-9.8,5.3c-1.8,1-3.5,0.9-5.1-0.3c-10.5-7.1-21-14.2-31.6-21.4c-1.4-1-2.8-2-4.2-3c-0.6-3.7-0.3-33.4,0.4-43.3
			c13.7-7,27.6-14.1,41.5-21.2c0.6-0.3,1.3-0.1,2.2,0c8.6,10.1,17.4,20.4,26.2,30.7c0,0.5,0,1.1,0,2.1c-1.9,1.9-3.9,4-6.1,5.9
			c-2,1.7-3.7,3.5-5.5,5.3c-1.5,1.4-3.7,1.5-5.2,0c-3.1-3.1-6.4-6.2-9.4-9.5C290.6,67.2,288.3,65,286.1,62.7z"/>
		<path class="st0" d="M72.4,32.8c0.9-0.1,1.7-0.2,2.5,0.2c0.3,1.9,0.5,3.7,0.4,5.6c-0.6,7.2-0.3,14.5-0.8,21.8
			c-0.1,1.7,0,3.4,0.3,5c0.2,1.4,1.3,2.4,2,3.5c3.7,5.7,7.4,11.4,11.2,17.1c1.2,1.9,0.3,3.9,0.8,6c-4.2,0.2-8.3-1.1-12.3-0.1
			c-0.6,11.8-0.3,23.7-1.1,35.7c-7.1,0.3-13.8,0.6-20.8,0.9c0-6.3,0-12.4,0-18.5c-1.8-0.6-3.3-0.5-4.8-0.1
			c-3.8,5.4-7.5,10.9-11.3,16.3c-0.5,0.7-1,1.1-1.9,1.1c-0.8,0-1.5,0.1-2.3,0.2c-8.3,0.2-16.6,0-24.8,0.6c-1.8,0.1-3.7,0-5.3-0.6
			c-0.8-1.5-0.1-2.6,0.7-3.6c6.7-9,13.3-17.9,20-26.9c5.1-6.8,10.2-13.7,15.2-20.5c6.8-9.2,13.5-18.4,20.3-27.6
			c3.8-5.2,7.7-10.3,11.5-15.5C71.8,33.3,72.1,33,72.4,32.8z"/>
		<path class="st0" d="M244.7,58.1c-4.2-2.7-8.3-5.4-12.5-8.2c-7.5-4.9-14.9-9.9-22.3-14.9c-1.9-1.2-3.1-1.2-4.9,0.2
			c-3.1,2.3-6.2,4.6-9.3,6.9c-8.2,6.2-16.5,12.3-25,18.7c-0.2,12.4,0.4,24.9,0.5,37.5c0.5,0.5,1,1,1.5,1.4
			c11.1,8.2,22.2,16.4,33.2,24.7c1.2,0.9,2.3,1,3.6,0.6c2.3-0.6,3.7-2.4,5.5-3.8c8.7-6.6,17.3-13.4,26-19.9c2.2-1.6,3.2-3.3,3.2-6.2
			c0-11.3,0.3-22.5,0.5-33.8C244.6,60.4,245.1,59.3,244.7,58.1z M216.5,86.9c-3.1,1.7-6.3,3.4-9.5,5.1c-3.4-2.1-6.8-4.2-10.2-6.3
			c-0.5-3.8-0.4-7.6,0.3-11.5c3.4-2.8,6.9-5.7,10.5-8.6c3.2,2.7,6.1,5.6,9,8.6C217,78.3,217,82.5,216.5,86.9z"/>
		<path class="st1" d="M207.4,36.6c-11.5,8.6-22.9,17.2-34.1,25.5c0,11.8,0,23.3,0,34.7c11.9,8.8,23.5,17.5,35.1,26.2
			c11.1-8.6,22.2-17.2,33.5-25.9c0-12.4,0-24.8,0-37.6C230.7,52,219.1,44.3,207.4,36.6z M217,87.3c-3.2,1.7-6.6,3.5-9.9,5.3
			c-3.6-2.2-7.2-4.4-10.8-6.6c-0.5-4-0.4-8,0.3-12.1c3.6-3,7.3-6,11-9c3.4,2.8,6.4,5.9,9.4,9C217.5,78.3,217.5,82.7,217,87.3z"/>
		<path class="st1" d="M366.3,34.9c7.6,0,15.2,0,22.9,0c0,1.8,0.1,3.8,0,5.7c-0.3,9.4-0.6,18.8-0.9,28.2c-0.2,5.8-0.4,11.6-0.6,17.3
			c0,0.5-0.1,1-0.4,1.4c-7.2,11.6-14.5,23.3-21.7,34.9c-0.1,0.1-0.2,0.2-0.4,0.4c-5.7-0.4-11.5-0.8-17.5-1.3
			c-8-11-16.1-22.1-24.1-33.1c-1-17.9-2-35.7-3-53.6c7.5,0,14.8,0,22.4,0c-1.3,17.1-2.6,34-3.8,50.7c3.7,5.6,6.4,11.4,9.9,17.1
			c5,0,10.1,0,15.1,0c1.1,0,1.7-0.5,2.1-1.6c1.8-5.6,3.6-11.1,5.3-16.6c0.6-1.9-0.2-3.9-0.4-5.9c-1.1-9.9-2.3-19.7-3.5-29.5
			c-0.5-3.9-1-7.8-1.4-11.7C366.2,36.7,366.1,36,366.3,34.9z"/>
		<path class="st1" d="M455.2,93.1c-3.8,5.6-7.5,11-11.2,16.5c-0.3,0.4-0.6,0.7-1,0.9c-8,3.9-16.1,7.8-24.2,11.8
			c-12.1-3.7-24.2-7.4-36.5-11.1c4.5-4.9,8.9-9.6,13.4-14.5c5.9,5.2,11.9,10.3,17.8,15.5c0.5,0,1.1,0.1,1.8,0.1
			c1.1-1.4,2.3-2.9,3.4-4.4c2.5-3.3,5.1-6.7,7.6-10c2.3-3,2.2-2.6-0.3-5.2c-10.6-11.5-21.2-23-32-34.7c6.2-6,12.4-11.9,18.5-17.7
			c5.6,0,11,0,16.4,0c4.2,5.1,8.3,10.1,12.5,15.2c-3.8,2-7.4,3.9-11.1,5.9c-1.1-0.7-1.9-1.9-2.8-2.8c-1.9-2-3.7-4-5.5-6
			c-0.6-0.6-1.2-1-2.3-1c-2.8,2.4-5.6,4.8-8.6,7.4c-0.3,0.8,0.5,1.1,1,1.5C426.1,71.1,440,81.6,454,92.2
			C454.3,92.5,454.7,92.8,455.2,93.1z"/>
		<path class="st1" d="M128.1,81.7c11.4-15.2,22.5-30.2,33.7-45.1c0.1,0,0.2,0,0.3,0.1c0.2,29.4,0.3,58.7,0.5,88.2
			c-5.6,0-11.1,0-16.7,0c-0.1-11.8-0.1-23.6-0.4-35.3c-0.5-0.5-1.1-0.6-1.7-0.9c-5.3,5.5-10.6,11-16,16.5c-1.3-1.3-2.6-2.5-3.9-3.7
			c-4.1-3.9-8.1-7.8-12.2-11.7c-0.5-0.5-1-1.3-2.2-0.3c0,11.9,0,24.1,0,36.2c-6,0-11.7,0-17.6,0c0-29.7,0-59.2,0-89
			C104,51.7,115.9,66.6,128.1,81.7z"/>
		<path class="st1" d="M288.6,113.5c6.6-4.6,13.3-9.2,20-13.8c-0.5-1.4-1.6-1.6-2.5-1.7c-3.6-0.4-7.1-0.7-10.7-1
			c-1-0.1-1.7-0.4-2.4-1.2c-1.8-2.1-3.6-4.1-5.6-6.5c9.6,0.2,18.9,0.4,28.3,0.6c0.6,5.5,1.1,10.9,1.7,16.4
			c-10,5.3-20.1,10.7-30.3,16c-12.1-8.2-24.2-16.4-36.4-24.7c0.2-13.1,0.3-26.3,0.5-39.7c13.3-6.8,26.6-13.7,40.1-20.6
			c8.3,9.7,16.5,19.4,24.9,29.1c-3.9,3.7-7.7,7.3-11.7,11.1c-5.9-6.1-11.8-12-17.8-18.2c-2,0.8-4.2,1.6-6.3,2.5
			c-4,1.6-8,3.3-12.1,4.8c-1.7,0.6-2.3,1.6-2.4,3.3c-0.3,5.8-0.7,11.6-1,17.5c-0.2,3-0.3,6-0.6,9c-0.1,1.2,0.3,2,1.3,2.7
			c6.9,4.4,13.8,8.9,20.8,13.4C287,113.1,287.7,113.4,288.6,113.5z"/>
		<path class="st1" d="M35.6,125.4c-9.6,0-19,0-28.7,0c21.8-29.5,43.7-58.9,65.6-88.6c0,1.9,0,3.4,0,5c-0.1,7.5-0.3,14.9-0.4,22.4
			c0,1.5-0.5,2.6-1.4,3.7c-5.6,7-11.1,14-16.7,21c-0.3,0.3-0.6,0.6-0.6,1.1c0.2,1,1,0.9,1.8,0.9c5.5,0.1,11,0.2,16.6,0.2
			c0.6,0,1.1,0,2,0c-0.2,11.5-0.5,22.9-0.7,34.4c-5.5,0.2-10.9,0.3-16.4,0.5c0-5.6,0-11.1,0-16.7c1.7,0,3.4,0,4.8,0
			c0.7-0.5,0.7-0.9,0.4-1.6c-4.7,0-9.4,0-14.1,0C43.8,113.5,39.8,119.3,35.6,125.4z"/>
		<path class="st2" d="M72.8,67.9c4.7,7.3,9.3,14.3,13.9,21.4c-10.2,0-20.2,0-30.8,0C61.7,82,67.2,75,72.8,67.9z"/>
		<g class="st3">
			<g>
				<path class="st4" d="M218.7,74.1c0-0.8-0.4-1.4-1-2c-2.9-2.8-5.8-5.7-8.8-8.5c-0.4-0.4-0.9-0.9-1.7-0.9
					c-3.8,3.2-7.8,6.3-11.6,9.6c-0.6,0.5-0.9,1.4-0.9,2.3c0,3.5-0.1,7.1-0.1,10.6c0,1,0.3,1.8,1.1,2.3c3.5,2.2,7,4.3,10.7,6.6
					c4.5-1.3,8.1-4.1,12.3-6C218.7,83.4,218.7,78.8,218.7,74.1z M217,87.3c-3.2,1.7-6.6,3.5-9.9,5.3c-3.6-2.2-7.2-4.4-10.8-6.6
					c-0.5-4-0.4-8,0.3-12.1c3.6-3,7.3-6,11-9c3.4,2.8,6.4,5.9,9.4,9C217.4,78.3,217.4,82.7,217,87.3z"/>
			</g>
		</g>
	</g>
</g>
</svg>
